<svg xmlns="http://www.w3.org/2000/svg" viewBox="0 0 256 256">
  <defs>
    <linearGradient id="bg" x1="0" y1="0" x2="1" y2="1">
      <stop stop-color="#a997ff"/>
      <stop offset="1" stop-color="#ff9bc8"/>
    </linearGradient>
  </defs>
  <circle cx="128" cy="128" r="124" fill="url(#bg)"/>
  <path d="M62 103 72 48l42 34c9-3 19-3 28 0l42-34 10 55c13 18 19 38 15 59-7 39-40 65-81 65s-74-26-81-65c-4-21 2-41 15-59Z" fill="#fff8fc"/>
  <path d="m72 48 42 34-48 25Z" fill="#6d60bf" opacity=".75"/>
  <path d="m184 48-42 34 48 25Z" fill="#f071ac" opacity=".7"/>
  <ellipse cx="94" cy="139" rx="9" ry="13" fill="#554a86"/>
  <ellipse cx="162" cy="139" rx="9" ry="13" fill="#554a86"/>
  <path d="m120 158 8 6 8-6" fill="none" stroke="#e67ba8" stroke-linecap="round" stroke-width="6"/>
  <path d="M128 164c0 13-11 19-23 19m23-19c0 13 11 19 23 19" fill="none" stroke="#766a9b" stroke-linecap="round" stroke-width="5"/>
  <circle cx="75" cy="159" r="12" fill="#ffb9d3" opacity=".5"/>
  <circle cx="181" cy="159" r="12" fill="#ffb9d3" opacity=".5"/>
</svg>

